<svg width="365" height="82" viewBox="0 0 365 82" fill="none" xmlns="http://www.w3.org/2000/svg">
<path d="M13.3337 80.0046C12.9823 80.0046 12.6564 79.9891 12.329 79.9651C11.9635 79.9369 11.6009 79.8974 11.2382 79.8409C10.6441 79.7477 10.0571 79.6138 9.48139 79.4402C7.61542 78.8758 5.89562 77.9098 4.44272 76.6101C2.98983 75.3104 1.83905 73.7084 1.07118 71.9167C0.683866 71.0152 0.399837 70.0727 0.224511 69.1074C0.155367 68.7208 0.103156 68.3327 0.0636445 67.9433C0.0146103 67.4473 -0.00611957 66.9488 0.00155567 66.4504C0.00222191 66.1365 0.019178 65.8229 0.0523556 65.5107C0.0819889 65.2511 0.104567 64.99 0.142667 64.7318C0.37776 63.0965 0.920233 61.5204 1.74145 60.0868C3.2265 57.4804 5.54652 55.4503 8.3271 54.3242C9.17542 53.9786 10.0581 53.7241 10.9602 53.5651C11.7324 53.4261 12.5152 53.3543 13.2998 53.3506C13.5087 53.3506 13.7232 53.3506 13.9278 53.3379C14.0971 53.3309 14.2665 53.3168 14.4358 53.3041C14.5021 53.3041 14.5656 53.2885 14.6319 53.2843C15.2184 53.2362 15.8002 53.1418 16.3718 53.0021C18.1483 52.5899 19.8203 51.8145 21.2825 50.7247C22.7445 49.6451 23.9697 48.2775 24.8827 46.7062C25.7958 45.1348 26.3772 43.3931 26.5911 41.5885C26.6835 40.852 26.7104 40.1088 26.6715 39.3675C26.498 36.3282 25.4467 33.6346 23.4641 31.3248C21.8369 29.4081 19.6952 27.9971 17.2919 27.2582C16.6429 27.0544 15.9784 26.9034 15.305 26.8067C14.6711 26.7125 14.0311 26.6653 13.3902 26.6656H13.0374C12.8017 26.6656 12.5675 26.6515 12.3318 26.6275C12.0496 26.5979 11.7589 26.5753 11.4739 26.5358C10.7352 26.4349 10.0067 26.2701 9.29653 26.0434C7.29494 25.4052 5.47221 24.3037 3.97651 22.8284C2.48082 21.3532 1.35438 19.5458 0.688766 17.5533C0.437299 16.8024 0.254516 16.0303 0.142667 15.2463C0.014143 14.3659 -0.0265088 13.475 0.0213112 12.5866C0.0424778 12.1957 0.0848111 11.8063 0.139844 11.4168C0.267392 10.5234 0.48632 9.64535 0.793188 8.79659C1.8289 5.94263 3.80637 3.52683 6.39952 1.94755C7.67432 1.16875 9.07252 0.612855 10.5341 0.303723C11.084 0.187416 11.6405 0.105419 12.2006 0.0582075C12.6434 0.0163905 13.088 -0.00291818 13.5327 0.000356073C13.7556 0.000356073 13.9772 0.0102331 14.1987 0.0328093C14.2904 0.0426864 14.3808 0.0497414 14.4725 0.0567965C15.3987 0.128148 16.3141 0.302786 17.2016 0.577459C19.37 1.23979 21.3338 2.44371 22.9078 4.07558C24.4817 5.70744 25.6139 7.71344 26.1974 9.90423C26.3447 10.449 26.4559 11.0028 26.5304 11.5622C26.6044 12.1327 26.6454 12.707 26.6532 13.2822C26.6532 13.4007 26.6532 13.5178 26.6532 13.6349C26.6894 15.7634 27.2456 17.8506 28.2731 19.715C29.4646 21.9138 31.2536 23.731 33.4336 24.9569C34.594 25.6186 35.8496 26.0974 37.1561 26.3764C37.6429 26.4808 38.1325 26.5556 38.6278 26.612C39.3045 26.6771 39.9848 26.6964 40.6641 26.6698C40.7431 26.6698 40.8207 26.6698 40.8997 26.6571C41.5638 26.6074 42.2238 26.5131 42.8753 26.3749C44.5407 26.0113 46.1197 25.3279 47.5249 24.3628C49.3613 23.1135 50.8559 21.4245 51.8725 19.4497C52.4155 18.4029 52.8147 17.2875 53.0593 16.1338C53.1486 15.7251 53.2169 15.3121 53.2639 14.8964C53.3218 14.4282 53.3529 13.9571 53.357 13.4854C53.357 13.3683 53.357 13.2497 53.357 13.1326C53.3631 12.6355 53.3961 12.139 53.4558 11.6454C53.7968 8.98 54.9353 6.47985 56.7222 4.47279C58.5091 2.46574 60.8608 1.04548 63.469 0.398261C64.0143 0.260879 64.5682 0.160469 65.1271 0.0977157C65.8154 0.0119049 66.5098 -0.0154724 67.2028 0.0158772C67.6261 0.0412754 68.0622 0.0751396 68.4911 0.132991C70.9954 0.472208 73.3499 1.52207 75.2758 3.1582C77.2394 4.81069 78.6806 6.99795 79.4244 9.45412C79.6098 10.0545 79.7513 10.6676 79.8478 11.2884C79.9037 11.6238 79.9414 11.962 79.9606 12.3015C79.9776 12.6543 80.0129 13.007 80.0058 13.3598C79.9968 13.9216 79.9582 14.4826 79.8901 15.0403C79.7201 16.3923 79.3392 17.7092 78.7612 18.9432C77.2792 22.1278 74.6009 24.5995 71.3077 25.8218C70.5725 26.0959 69.814 26.3028 69.0415 26.4399C68.6294 26.5118 68.2146 26.564 67.7983 26.6021C67.382 26.6402 66.9883 26.6501 66.5833 26.6543C66.1783 26.6586 65.7987 26.6628 65.4065 26.6698C65.1242 26.6698 64.8307 26.6868 64.5443 26.7122C64.4272 26.7221 64.31 26.7249 64.1915 26.7305C63.9177 26.7432 63.644 26.7559 63.3702 26.7898C63.2672 26.8025 63.1614 26.8053 63.0584 26.8152C62.889 26.8307 62.7197 26.8462 62.5504 26.8646C62.2512 26.897 61.9521 26.9281 61.6543 26.9647C61.1999 27.0212 60.747 27.0875 60.2954 27.1581C59.9342 27.2145 59.5743 27.285 59.2145 27.35C58.4031 27.4911 57.6002 27.6787 56.8015 27.8805C54.5572 28.4488 52.3672 29.2132 50.2568 30.1649C44.9488 32.5539 40.2247 36.07 36.413 40.469C32.6012 44.8679 29.7932 50.0442 28.1842 55.6379C27.8926 56.6547 27.6424 57.6834 27.4335 58.7238C27.299 59.3898 27.1814 60.059 27.0807 60.7316C27.0045 61.2354 26.9396 61.7405 26.8846 62.247C26.8408 62.6379 26.8183 63.0287 26.7703 63.4182C26.7703 63.4577 26.7618 63.4972 26.7604 63.5353C26.7195 64.2662 26.6574 64.9971 26.6546 65.7294C26.6546 66.0699 26.6508 66.41 26.6433 66.7496C26.6376 67.3128 26.5999 67.8753 26.5304 68.4343C26.3849 69.5639 26.0922 70.6697 25.6598 71.7234C24.9569 73.4345 23.9062 74.9811 22.5744 76.265C21.2425 77.5489 19.6585 78.5422 17.9226 79.182C17.1867 79.4532 16.4277 79.6572 15.655 79.7915C15.2415 79.8621 14.8281 79.9199 14.4104 79.951C14.0407 79.9778 13.6752 80.0046 13.3337 80.0046ZM59.9949 13.3725C59.9921 14.036 60.093 14.6958 60.294 15.3282C60.5776 16.2281 61.0484 17.0579 61.6753 17.7631C62.3023 18.4683 63.0713 19.033 63.9318 19.4201C64.7666 19.8025 65.6736 20.0017 66.5918 20.0042H66.8274C67.324 20.0034 67.8186 19.9399 68.2992 19.8152C69.6917 19.4645 70.9348 18.6758 71.8453 17.5655C72.7557 16.4551 73.2856 15.0818 73.3567 13.6476C73.3761 13.2817 73.3625 12.9148 73.3157 12.5513C73.2717 12.175 73.1961 11.8031 73.09 11.4394C72.6367 9.89166 71.639 8.56002 70.2809 7.69015C68.9228 6.82027 67.2959 6.47086 65.7003 6.70637C64.1047 6.94188 62.6482 7.74642 61.5993 8.97157C60.5505 10.1967 59.9801 11.7598 59.9934 13.3725H59.9949ZM6.63377 66.6917C6.63656 68.0141 7.03148 69.3059 7.76858 70.4038C8.50567 71.5017 9.55183 72.3564 10.7747 72.8597C11.9976 73.3631 13.3424 73.4924 14.6388 73.2315C15.9353 72.9706 17.1252 72.3311 18.0582 71.3939C18.9911 70.4566 19.6251 69.2638 19.88 67.9663C20.135 66.6687 19.9993 65.3247 19.4903 64.1042C18.9812 62.8838 18.1216 61.8417 17.0202 61.1097C15.9189 60.3778 14.6251 59.9889 13.3027 59.9923C12.4249 59.9943 11.556 60.1692 10.7458 60.507C9.93562 60.8448 9.19987 61.3388 8.58061 61.9609C7.96134 62.583 7.47068 63.321 7.13664 64.1327C6.8026 64.9444 6.63173 65.814 6.63377 66.6917V66.6917ZM6.63377 13.3386C6.63628 14.6607 7.03075 15.9523 7.76729 17.0502C8.50384 18.1481 9.5494 19.003 10.7718 19.5068C11.9942 20.0106 13.3385 20.1407 14.6348 19.8807C15.9311 19.6206 17.1212 18.982 18.0547 18.0457C18.9881 17.1094 19.6229 15.9174 19.8789 14.6203C20.1349 13.3233 20.0006 11.9795 19.4928 10.7588C18.9851 9.53806 18.1269 8.49528 17.0266 7.76226C15.9262 7.02924 14.6333 6.6389 13.3111 6.64057C12.4324 6.64038 11.5623 6.81365 10.7507 7.15045C9.9391 7.48726 9.20197 7.98096 8.58161 8.60325C7.96124 9.22554 7.46984 9.96416 7.13558 10.7768C6.80133 11.5894 6.6308 12.46 6.63377 13.3386V13.3386Z" fill="#5940CE"/>
<path d="M58.3722 80.0047C57.9122 80.0047 57.4931 79.9976 57.0754 79.9638C56.9456 79.9525 56.8144 79.9496 56.6845 79.9398C56.5152 79.9257 56.3459 79.9116 56.1765 79.8932C55.8943 79.8622 55.6121 79.8325 55.32 79.793C54.5816 79.6909 53.8491 79.5496 53.1257 79.3697C49.2614 78.4121 45.7357 76.4082 42.936 73.578C40.1362 70.7478 38.1705 67.2008 37.255 63.3265C37.1111 62.716 36.9935 62.0999 36.9022 61.4781C36.8556 61.1677 36.8091 60.8573 36.7907 60.544C36.7837 60.4396 36.7682 60.3352 36.7583 60.2322C36.7484 60.1292 36.7357 60.0234 36.7301 59.919C36.6729 59.0316 36.6658 58.1417 36.7089 57.2536C36.7089 56.7823 36.778 56.3152 36.8147 55.8426C37.1188 53.2256 37.8978 50.6861 39.1134 48.3487C39.9525 46.7319 40.9959 45.2296 42.2179 43.8786C45.4486 40.2713 49.7973 37.8534 54.5665 37.0126C55.0293 36.9308 55.4964 36.8715 55.9635 36.8123C56.6786 36.7338 57.3974 36.6932 58.1168 36.6909C58.653 36.6909 59.1893 36.7008 59.7241 36.7248C59.8285 36.7248 59.9329 36.7403 60.0373 36.7488C60.1418 36.7572 60.2194 36.7699 60.3111 36.777C60.9108 36.8221 61.5049 36.9082 62.099 37.0112C62.8078 37.1324 63.5096 37.2911 64.2015 37.4867C66.9726 38.268 69.5605 39.5928 71.8145 41.384C74.0685 43.1752 75.9436 45.3969 77.3305 47.9197C78.2669 49.6159 78.9667 51.4323 79.4105 53.3183C79.5756 54.0238 79.704 54.7293 79.8042 55.4348C79.8521 55.7847 79.8747 56.1403 79.9213 56.486C79.9354 56.589 79.9368 56.6948 79.9424 56.7992C79.9551 57.0207 79.9636 57.2437 79.9763 57.4652C80.0088 58.04 80.0088 58.6161 79.9763 59.1909C79.9763 59.308 79.9622 59.4251 79.9594 59.5436C79.9467 60.0008 79.8987 60.4566 79.8451 60.9109C79.7773 61.4809 79.6866 62.0486 79.5727 62.614C78.9333 65.7794 77.595 68.762 75.6556 71.3443C73.7163 73.9265 71.2247 76.0431 68.3629 77.5397C66.6947 78.4162 64.9177 79.0676 63.0783 79.477C62.4913 79.6068 61.9 79.714 61.3031 79.7944C60.7838 79.8636 60.2645 79.9186 59.7424 79.9496C59.2683 79.9793 58.8012 80.0047 58.3722 80.0047ZM43.3129 58.309C43.3062 61.2801 44.1806 64.1865 45.8257 66.6608C47.4707 69.135 49.8124 71.066 52.5548 72.2096C55.2972 73.3533 58.3171 73.6582 61.2328 73.0858C64.1485 72.5135 66.829 71.0895 68.9355 68.9941C71.042 66.8986 72.4798 64.2257 73.0672 61.3132C73.6547 58.4007 73.3654 55.3794 72.2358 52.6314C71.1063 49.8833 69.1873 47.5318 66.7214 45.8741C64.2555 44.2165 61.3534 43.3271 58.3821 43.3184C54.396 43.3087 50.5691 44.8824 47.7432 47.6936C44.9173 50.5048 43.3237 54.3231 43.3129 58.309Z" fill="#5940CE"/>
<path d="M351.302 4.40039H364.046V80.0004H351.302V4.40039Z" fill="#5940CE"/>
<path d="M324.396 60.1285H293.4L287.46 80.0005H274.716L293.616 18.7645C294.84 14.7325 296.1 11.6005 297.396 9.36849C298.764 7.13649 300.348 5.55249 302.148 4.61649C303.948 3.60849 306.216 3.10449 308.952 3.10449C311.616 3.10449 313.848 3.60849 315.648 4.61649C317.448 5.55249 319.032 7.13649 320.4 9.36849C321.768 11.6005 323.064 14.7325 324.288 18.7645L343.08 80.0005H330.336L324.396 60.1285ZM321.588 50.6245L312.192 18.9805C311.76 17.5405 311.292 16.4965 310.788 15.8485C310.356 15.2005 309.744 14.8765 308.952 14.8765C308.16 14.8765 307.512 15.2005 307.008 15.8485C306.504 16.4965 306.036 17.5405 305.604 18.9805L296.208 50.6245H321.588Z" fill="#5940CE"/>
<path d="M250.862 38.4207V62.3966C250.862 65.4926 251.402 67.7247 252.482 69.0927C253.562 70.4607 255.326 71.1447 257.774 71.1447H265.55V80.2167H257.774C251.006 80.2167 246.182 78.8847 243.302 76.2207C240.494 73.4847 239.09 68.8766 239.09 62.3966V20.0606C239.09 18.3326 238.766 16.9286 238.118 15.8486C237.47 14.7686 236.282 13.5447 234.554 12.1767L242.438 5.26465C245.606 6.92065 247.802 8.82865 249.026 10.9886C250.25 13.0766 250.862 16.0286 250.862 19.8446V29.2407H265.55V38.4207H250.862Z" fill="#5940CE"/>
<path d="M206.712 81.2963C201.456 81.2963 197.388 80.5763 194.508 79.1363C191.7 77.6243 189.072 75.2483 186.624 72.0083L193.968 65.7443C195.984 68.1203 197.892 69.7763 199.692 70.7123C201.492 71.6483 203.832 72.1163 206.712 72.1163C210.24 72.1163 212.832 71.6123 214.488 70.6043C216.144 69.5963 216.972 68.0483 216.972 65.9603C216.972 64.6643 216.576 63.6203 215.784 62.8283C215.064 61.9643 213.696 61.2083 211.68 60.5603C209.736 59.9123 206.892 59.2643 203.148 58.6163C193.068 56.7443 188.028 51.4883 188.028 42.8483C188.028 38.2403 189.792 34.6043 193.32 31.9403C196.92 29.2763 201.708 27.9443 207.684 27.9443C216.684 27.9443 222.948 30.7883 226.476 36.4763L219.24 42.6323C217.44 40.6883 215.676 39.2843 213.948 38.4203C212.22 37.5563 210.132 37.1243 207.684 37.1243C204.948 37.1243 202.824 37.6643 201.312 38.7443C199.872 39.8243 199.152 41.3003 199.152 43.1723C199.152 44.9723 199.98 46.3763 201.636 47.3843C203.292 48.3203 205.56 49.0763 208.44 49.6523C212.976 50.6603 216.612 51.7403 219.348 52.8923C222.084 53.9723 224.244 55.5923 225.828 57.7523C227.412 59.8403 228.204 62.6483 228.204 66.1763C228.204 76.2563 221.04 81.2963 206.712 81.2963Z" fill="#5940CE"/>
<path d="M158.951 27.9443C164.423 27.9443 168.599 29.4923 171.479 32.5883C174.431 35.6123 175.907 39.8963 175.907 45.4403V80.0003H164.135V46.6283C164.135 43.6763 163.379 41.3723 161.867 39.7163C160.427 37.9883 158.375 37.1243 155.711 37.1243C152.615 37.1243 150.059 38.1323 148.043 40.1483C146.027 42.0923 144.479 44.6843 143.399 47.9243V80.0003H131.627V42.7403C131.627 41.0123 131.303 39.6083 130.655 38.5283C130.007 37.4483 128.819 36.2243 127.091 34.8563L134.975 27.9443C137.279 29.1683 139.043 30.5003 140.267 31.9403C141.491 33.3083 142.355 34.9643 142.859 36.9083C144.371 34.1723 146.495 32.0123 149.231 30.4283C151.967 28.7723 155.207 27.9443 158.951 27.9443Z" fill="#5940CE"/>
<path d="M101.858 4.40039H114.602V80.0004H101.858V4.40039Z" fill="#5940CE"/>
</svg>
